<?xml version="1.0" standalone="yes"?>
<svg xmlns="http://www.w3.org/2000/svg" width="301" height="167">
<path style="fill:#ffffff; stroke:none;" d="M0 0L0 167L301 167L301 0L0 0z"/>
<path style="fill:#9c9c9c; stroke:none;" d="M272 41L272 42L275 42L272 41z"/>
<path style="fill:#5f5f5f; stroke:none;" d="M275 41L275 42L279 42L275 41z"/>
<path style="fill:#9c9c9c; stroke:none;" d="M279.667 41.3333L280.333 41.6667L279.667 41.3333M269 42L270 43L269 42z"/>
<path style="fill:#2e2e2e; stroke:none;" d="M270 42L271 43L270 42z"/>
<path style="fill:#020202; stroke:none;" d="M249 43L239 47L244 55C240.668 56.7335 238.052 58.7963 235.97 62.0039C218.368 89.1232 265.329 111.192 274.366 81C275.499 77.2136 275.602 72.8445 274.745 69C273.582 63.7798 270.526 59.8664 267 56L294 53C289.546 43.7189 279.915 39.975 270 42.7886C261.996 45.0598 255.581 51.3004 249 43z"/>
<path style="fill:#2e2e2e; stroke:none;" d="M282 42L283 43L282 42z"/>
<path style="fill:#9c9c9c; stroke:none;" d="M283 42L284 43L283 42M247 43L248 44L247 43z"/>
<path style="fill:#5f5f5f; stroke:none;" d="M267 43L268 44L267 43M285 43L286 44L285 43z"/>
<path style="fill:#9c9c9c; stroke:none;" d="M244 44L245 45L244 44z"/>
<path style="fill:#5f5f5f; stroke:none;" d="M245 44L246 45L245 44M249 44L250 45L249 44z"/>
<path style="fill:#9c9c9c; stroke:none;" d="M264 44L265 45L264 44z"/>
<path style="fill:#2e2e2e; stroke:none;" d="M265 44L266 45L265 44z"/>
<path style="fill:#9c9c9c; stroke:none;" d="M287 44L288 45L287 44M242 45L243 46L242 45M250 45L251 46L250 45M262 45L263 46L262 45z"/>
<path style="fill:#5f5f5f; stroke:none;" d="M263 45L264 46L263 45z"/>
<path style="fill:#2e2e2e; stroke:none;" d="M288 45L289 46L288 45z"/>
<path style="fill:#9c9c9c; stroke:none;" d="M239 46L240 47L239 46z"/>
<path style="fill:#5f5f5f; stroke:none;" d="M240 46L241 47L240 46M251 46L252 47L251 46z"/>
<path style="fill:#9c9c9c; stroke:none;" d="M260 46L261 47L260 46z"/>
<path style="fill:#2e2e2e; stroke:none;" d="M261 46L262 47L261 46M238 47L239 48L238 47z"/>
<path style="fill:#5f5f5f; stroke:none;" d="M253 47L254 48L253 47z"/>
<path style="fill:#9c9c9c; stroke:none;" d="M254 47L254 48L258 48L254 47z"/>
<path style="fill:#5f5f5f; stroke:none;" d="M258 47L259 48L258 47z"/>
<path style="fill:#9c9c9c; stroke:none;" d="M238 48L239 49L238 48z"/>
<path style="fill:#2e2e2e; stroke:none;" d="M291 48L292 49L291 48z"/>
<path style="fill:#5f5f5f; stroke:none;" d="M292 49L293 50L292 49z"/>
<path style="fill:#9c9c9c; stroke:none;" d="M239 50L240 51L239 50M293 50L294 51L293 50z"/>
<path style="fill:#5f5f5f; stroke:none;" d="M240 51L241 52L240 51z"/>
<path style="fill:#2e2e2e; stroke:none;" d="M293 51L294 52L293 51z"/>
<path style="fill:#9c9c9c; stroke:none;" d="M6 52L6 53L36 53L6 52M60 52L60 53L70 53L70 78C71.7409 73.8511 73.2675 56.0942 69.3966 53.0278C67.1287 51.2312 62.7031 52.0003 60 52M88 52L88 53L97 53L88 52M111 52L111 100L112 100L112 53L137 53L111 52M176 52L176 53L202 53L176 52z"/>
<path style="fill:#2e2e2e; stroke:none;" d="M241 52L242 53L241 52z"/>
<path style="fill:#9c9c9c; stroke:none;" d="M294 52L295 53L294 52z"/>
<path style="fill:#5f5f5f; stroke:none;" d="M6 53L7 54L6 53z"/>
<path style="fill:#020202; stroke:none;" d="M7 53L7 100C17.8903 97.4072 32.6222 102.749 41.9568 95.4421C53.904 86.0898 47.0635 75.6762 43.2978 65C41.96 61.2068 43.9173 56.9917 39.7716 54.4568C32.2038 49.8293 15.6908 53 7 53z"/>
<path style="fill:#5f5f5f; stroke:none;" d="M38 53L39 54L38 53z"/>
<path style="fill:#9c9c9c; stroke:none;" d="M39 53L40 54L39 53z"/>
<path style="fill:#020202; stroke:none;" d="M60 53C60 62.9395 57.6315 77.107 63.0093 85.9961C70.1588 97.814 89.2559 97.8654 95.4275 84.9992C99.5723 76.3582 97 62.4083 97 53L88 53C88 60.5606 90.1469 72.0889 86.6821 78.9846C83.6753 84.9689 76.1081 86.7439 72.0093 80.811C67.4276 74.179 70 60.7435 70 53L60 53z"/>
<path style="fill:#5f5f5f; stroke:none;" d="M87 53L87 78L88 78L87 53M97 53L97 78L98 78L97 53z"/>
<path style="fill:#020202; stroke:none;" d="M112 53L112 100L121 100L121 92C127.263 92.4548 131.344 96.8074 137 99.0702C145.71 102.555 154.276 101.767 163 99C157.463 88.6894 149.731 94.0848 140 91C153.52 83.7533 161.263 64.8547 143.999 55.4174C135.179 50.5959 121.745 53 112 53z"/>
<path style="fill:#2e2e2e; stroke:none;" d="M139 53L140 54L139 53z"/>
<path style="fill:#9c9c9c; stroke:none;" d="M140 53L141 54L140 53z"/>
<path style="fill:#020202; stroke:none;" d="M176 53C179.045 65.7883 179.045 86.2117 176 99L186 100L186 92C191.715 92.4271 194.986 96.1879 200 98.4815C208.439 102.342 218.494 102.595 227 99C223.038 88.2358 214.148 93.8998 205 91C218.251 83.7333 225.988 64.7723 208.996 55.4174C199.993 50.4608 185.966 53 176 53z"/>
<path style="fill:#5f5f5f; stroke:none;" d="M204 53L205 54L204 53z"/>
<path style="fill:#9c9c9c; stroke:none;" d="M205 53L206 54L205 53z"/>
<path style="fill:#2e2e2e; stroke:none;" d="M272 53L273 54L272 53z"/>
<path style="fill:#9c9c9c; stroke:none;" d="M273 53L274 54L273 53M279 53L280 54L279 53z"/>
<path style="fill:#2e2e2e; stroke:none;" d="M280 53L281 54L280 53z"/>
<path style="fill:#5f5f5f; stroke:none;" d="M293 53L294 54L293 53z"/>
<path style="fill:#9c9c9c; stroke:none;" d="M6 54L6 100L7 100C7 86.9966 11.0098 65.9389 6 54z"/>
<path style="fill:#2e2e2e; stroke:none;" d="M40 54L41 55L40 54M142 54L143 55L142 54z"/>
<path style="fill:#9c9c9c; stroke:none;" d="M143 54L144 55L143 54z"/>
<path style="fill:#2e2e2e; stroke:none;" d="M176 54L176 98L177 98C177 85.5196 180.81 65.4634 176 54z"/>
<path style="fill:#5f5f5f; stroke:none;" d="M207 54L208 55L207 54z"/>
<path style="fill:#2e2e2e; stroke:none;" d="M243 54L244 55L243 54z"/>
<path style="fill:#5f5f5f; stroke:none;" d="M270 54L271 55L270 54z"/>
<path style="fill:#9c9c9c; stroke:none;" d="M281 54L282 55L281 54z"/>
<path style="fill:#2e2e2e; stroke:none;" d="M290 54L291 55L290 54z"/>
<path style="fill:#9c9c9c; stroke:none;" d="M291 54L292 55L291 54z"/>
<path style="fill:#2e2e2e; stroke:none;" d="M144 55L145 56L144 55z"/>
<path style="fill:#5f5f5f; stroke:none;" d="M209 55L210 56L209 55M242 55L243 56L242 55M268 55L269 56L268 55z"/>
<path style="fill:#9c9c9c; stroke:none;" d="M282 55L283 56L282 55z"/>
<path style="fill:#5f5f5f; stroke:none;" d="M288 55L289 56L288 55z"/>
<path style="fill:#9c9c9c; stroke:none;" d="M289 55L290 56L289 55z"/>
<path style="fill:#5f5f5f; stroke:none;" d="M42 56L43 57L42 56z"/>
<path style="fill:#9c9c9c; stroke:none;" d="M146 56L147 57L146 56M240 56L241 57L240 56M267 56L268 57L267 56z"/>
<path style="fill:#2e2e2e; stroke:none;" d="M283 56L284 57L283 56z"/>
<path style="fill:#9c9c9c; stroke:none;" d="M286 56L287 57L286 56z"/>
<path style="fill:#5f5f5f; stroke:none;" d="M147 57L148 58L147 57z"/>
<path style="fill:#9c9c9c; stroke:none;" d="M212 57L213 58L212 57M239 57L240 58L239 57M268 57L269 58L268 57M284 57L285 58L284 57M43 58L44 59L43 58z"/>
<path style="fill:#5f5f5f; stroke:none;" d="M148 58L149 59L148 58z"/>
<path style="fill:#9c9c9c; stroke:none;" d="M213 58L214 59L213 58M238 58L239 59L238 58M269 58L270 59L269 58z"/>
<path style="fill:#5f5f5f; stroke:none;" d="M43.3333 59.6667L43.6667 60.3333L43.3333 59.6667M149 59L150 60L149 59z"/>
<path style="fill:#9c9c9c; stroke:none;" d="M214 59L215 60L214 59M237 59L238 60L237 59M270 59L271 60L270 59z"/>
<path style="fill:#2e2e2e; stroke:none;" d="M16 60L17 61L16 60z"/>
<path style="fill:#9c9c9c; stroke:none;" d="M17 60L17 61L29 61L17 60z"/>
<path style="fill:#5f5f5f; stroke:none;" d="M29 60L30 61L29 60z"/>
<path style="fill:#9c9c9c; stroke:none;" d="M150 60L151 61L150 60M236 60L237 61L236 60z"/>
<path style="fill:#5f5f5f; stroke:none;" d="M16.3333 61.6667L16.6667 62.3333L16.3333 61.6667z"/>
<path style="fill:#ffffff; stroke:none;" d="M17 61L17 63L31 63L17 61z"/>
<path style="fill:#9c9c9c; stroke:none;" d="M30 61L31 62L30 61M43 61L44 62L43 61z"/>
<path style="fill:#2e2e2e; stroke:none;" d="M215 61L216 62L215 61M271 61L272 62L271 61M151 62L152 63L151 62z"/>
<path style="fill:#9c9c9c; stroke:none;" d="M216 62L217 63L216 62z"/>
<path style="fill:#5f5f5f; stroke:none;" d="M235 62L236 63L235 62z"/>
<path style="fill:#2e2e2e; stroke:none;" d="M251 62L252 63L251 62z"/>
<path style="fill:#5f5f5f; stroke:none;" d="M252 62L252 63L256 63L252 62z"/>
<path style="fill:#9c9c9c; stroke:none;" d="M272 62L273 63L272 62z"/>
<path style="fill:#2e2e2e; stroke:none;" d="M17 63L17 64L31 64L17 63z"/>
<path style="fill:#5f5f5f; stroke:none;" d="M42 63L43 64L42 63z"/>
<path style="fill:#2e2e2e; stroke:none;" d="M121 63L121 82L122 82L121 63z"/>
<path style="fill:#ffffff; stroke:none;" d="M122 63L122 82C127.54 82 134.937 83.1834 139.786 79.9105C145.318 76.1772 144.718 67.6594 138.895 64.5725C134.017 61.9865 127.329 63 122 63z"/>
<path style="fill:#9c9c9c; stroke:none;" d="M136.667 63.3333L137.333 63.6667L136.667 63.3333z"/>
<path style="fill:#2e2e2e; stroke:none;" d="M138 63L139 64L138 63z"/>
<path style="fill:#9c9c9c; stroke:none;" d="M152 63L153 64L152 63M186 63L186 82L187 82L186 63z"/>
<path style="fill:#ffffff; stroke:none;" d="M187 63L187 82C192.291 82 199.276 83.1469 203.945 80.142C210.672 75.8127 209.246 66.7116 201.995 63.8935C197.502 62.147 191.736 63 187 63z"/>
<path style="fill:#9c9c9c; stroke:none;" d="M201 63L202 64L201 63z"/>
<path style="fill:#5f5f5f; stroke:none;" d="M202 63L203 64L202 63z"/>
<path style="fill:#9c9c9c; stroke:none;" d="M234 63L235 64L234 63M249 63L250 64L249 63z"/>
<path style="fill:#ffffff; stroke:none;" d="M250.004 63.7423C236.71 68.8698 244.378 90.1493 257.985 84.848C271.217 79.6932 263.49 58.5405 250.004 63.7423z"/>
<path style="fill:#9c9c9c; stroke:none;" d="M258 63L259 64L258 63M139 64L140 65L139 64z"/>
<path style="fill:#2e2e2e; stroke:none;" d="M152 64L153 65L152 64z"/>
<path style="fill:#5f5f5f; stroke:none;" d="M204 64L205 65L204 64z"/>
<path style="fill:#9c9c9c; stroke:none;" d="M217 64L218 65L217 64z"/>
<path style="fill:#2e2e2e; stroke:none;" d="M234 64L235 65L234 64z"/>
<path style="fill:#9c9c9c; stroke:none;" d="M247 64L248 65L247 64z"/>
<path style="fill:#5f5f5f; stroke:none;" d="M260 64L261 65L260 64M273 64L274 65L273 64z"/>
<path style="fill:#9c9c9c; stroke:none;" d="M42 65L43 66L42 65z"/>
<path style="fill:#2e2e2e; stroke:none;" d="M141 65L142 66L141 65z"/>
<path style="fill:#9c9c9c; stroke:none;" d="M205 65L206 66L205 65M233 65L234 66L233 65M246 65L247 66L246 65M261 65L262 66L261 65M43 66L44 67L43 66M153 66L154 67L153 66M206 66L207 67L206 66M218.333 66.6667L218.667 67.3333L218.333 66.6667z"/>
<path style="fill:#5f5f5f; stroke:none;" d="M233 66L234 67L233 66z"/>
<path style="fill:#9c9c9c; stroke:none;" d="M245 66L246 67L245 66M262 66L263 67L262 66M274 66L275 67L274 66z"/>
<path style="fill:#5f5f5f; stroke:none;" d="M44 67L45 68L44 67z"/>
<path style="fill:#9c9c9c; stroke:none;" d="M142 67L143 68L142 67z"/>
<path style="fill:#2e2e2e; stroke:none;" d="M153 67L154 68L153 67z"/>
<path style="fill:#5f5f5f; stroke:none;" d="M207 67L208 68L207 67z"/>
<path style="fill:#9c9c9c; stroke:none;" d="M244 67L245 68L244 67z"/>
<path style="fill:#5f5f5f; stroke:none;" d="M263 67L264 68L263 67z"/>
<path style="fill:#2e2e2e; stroke:none;" d="M274 67L275 68L274 67z"/>
<path style="fill:#9c9c9c; stroke:none;" d="M45 68L46 69L45 68z"/>
<path style="fill:#2e2e2e; stroke:none;" d="M143 68L144 69L143 68z"/>
<path style="fill:#5f5f5f; stroke:none;" d="M218 68L219 69L218 68z"/>
<path style="fill:#9c9c9c; stroke:none;" d="M232 68L233 69L232 68z"/>
<path style="fill:#2e2e2e; stroke:none;" d="M243 68L244 69L243 68z"/>
<path style="fill:#9c9c9c; stroke:none;" d="M46 69L47 70L46 69M143 69L144 70L143 69z"/>
<path style="fill:#5f5f5f; stroke:none;" d="M208 69L209 70L208 69M232 69L233 70L232 69z"/>
<path style="fill:#9c9c9c; stroke:none;" d="M243 69L244 70L243 69M264 69L265 70L264 69M275.333 69.6667L275.667 70.3333L275.333 69.6667M17 70L17 71L30 71L17 70z"/>
<path style="fill:#5f5f5f; stroke:none;" d="M30.6667 70.3333L31.3333 70.6667L30.6667 70.3333z"/>
<path style="fill:#9c9c9c; stroke:none;" d="M154 70L154 75L155 75L154 70M208 70L209 71L208 70z"/>
<path style="fill:#2e2e2e; stroke:none;" d="M232 70L233 71L232 70M242 70L243 71L242 70M16 71L16 89L17 89L16 71z"/>
<path style="fill:#ffffff; stroke:none;" d="M17 71L17 89C22.0961 89 29.3274 90.2898 33.956 87.821C40.6884 84.2301 40.045 74.5268 32.9846 71.7423C28.3528 69.9156 21.9068 71 17 71z"/>
<path style="fill:#9c9c9c; stroke:none;" d="M33 71L34 72L33 71z"/>
<path style="fill:#2e2e2e; stroke:none;" d="M34 71L35 72L34 71z"/>
<path style="fill:#9c9c9c; stroke:none;" d="M47 71L48 72L47 71M242 71L242 77L243 77L242 71z"/>
<path style="fill:#5f5f5f; stroke:none;" d="M265 71L266 72L265 71M275 71L276 72L275 71M35 72L36 73L35 72z"/>
<path style="fill:#2e2e2e; stroke:none;" d="M144.333 72.6667L144.667 73.3333L144.333 72.6667z"/>
<path style="fill:#9c9c9c; stroke:none;" d="M265 72L265 76L266 76L265 72z"/>
<path style="fill:#2e2e2e; stroke:none;" d="M275 72L276 73L275 72z"/>
<path style="fill:#9c9c9c; stroke:none;" d="M36 73L37 74L36 73M48 73L49 74L48 73z"/>
<path style="fill:#5f5f5f; stroke:none;" d="M37 74L38 75L37 74z"/>
<path style="fill:#2e2e2e; stroke:none;" d="M48 74L49 75L48 74z"/>
<path style="fill:#9c9c9c; stroke:none;" d="M208 74L209 75L208 74z"/>
<path style="fill:#2e2e2e; stroke:none;" d="M275 74L275 77L276 77L275 74z"/>
<path style="fill:#9c9c9c; stroke:none;" d="M143 75L144 76L143 75z"/>
<path style="fill:#5f5f5f; stroke:none;" d="M208 75L209 76L208 75z"/>
<path style="fill:#2e2e2e; stroke:none;" d="M218 75L219 76L218 75z"/>
<path style="fill:#9c9c9c; stroke:none;" d="M38 76L39 77L38 76z"/>
<path style="fill:#2e2e2e; stroke:none;" d="M143 76L144 77L143 76z"/>
<path style="fill:#5f5f5f; stroke:none;" d="M218 76L219 77L218 76M265 76L266 77L265 76z"/>
<path style="fill:#9c9c9c; stroke:none;" d="M49 77L49 84L50 84L49 77z"/>
<path style="fill:#2e2e2e; stroke:none;" d="M60.3333 77.6667L60.6667 78.3333L60.3333 77.6667z"/>
<path style="fill:#9c9c9c; stroke:none;" d="M142 77L143 78L142 77z"/>
<path style="fill:#2e2e2e; stroke:none;" d="M153 77L154 78L153 77z"/>
<path style="fill:#5f5f5f; stroke:none;" d="M207 77L208 78L207 77z"/>
<path style="fill:#9c9c9c; stroke:none;" d="M218 77L219 78L218 77z"/>
<path style="fill:#5f5f5f; stroke:none;" d="M242 77L243 78L242 77z"/>
<path style="fill:#2e2e2e; stroke:none;" d="M265 77L266 78L265 77z"/>
<path style="fill:#5f5f5f; stroke:none;" d="M275 77L276 78L275 77M70 78L71 79L70 78z"/>
<path style="fill:#9c9c9c; stroke:none;" d="M97 78L97 81L98 81L97 78M153 78L154 79L153 78M206 78L207 79L206 78z"/>
<path style="fill:#2e2e2e; stroke:none;" d="M232 78L233 79L232 78z"/>
<path style="fill:#9c9c9c; stroke:none;" d="M275.333 78.6667L275.667 79.3333L275.333 78.6667z"/>
<path style="fill:#2e2e2e; stroke:none;" d="M39.3333 79.6667L39.6667 80.3333L39.3333 79.6667z"/>
<path style="fill:#5f5f5f; stroke:none;" d="M60 79L61 80L60 79z"/>
<path style="fill:#9c9c9c; stroke:none;" d="M205 79L206 80L205 79z"/>
<path style="fill:#2e2e2e; stroke:none;" d="M217 79L218 80L217 79z"/>
<path style="fill:#9c9c9c; stroke:none;" d="M232.333 79.6667L232.667 80.3333L232.333 79.6667M243 79L244 80L243 79z"/>
<path style="fill:#5f5f5f; stroke:none;" d="M264 79L265 80L264 79z"/>
<path style="fill:#9c9c9c; stroke:none;" d="M60.3333 80.6667L60.6667 81.3333L60.3333 80.6667M71 80L72 81L71 80z"/>
<path style="fill:#5f5f5f; stroke:none;" d="M86 80L87 81L86 80z"/>
<path style="fill:#9c9c9c; stroke:none;" d="M139 80L140 81L139 80z"/>
<path style="fill:#5f5f5f; stroke:none;" d="M152 80L153 81L152 80M204 80L205 81L204 80z"/>
<path style="fill:#9c9c9c; stroke:none;" d="M217 80L218 81L217 80M263 80L264 81L263 80M136.667 81.3333L137.333 81.6667L136.667 81.3333M152 81L153 82L152 81M201 81L202 82L201 81z"/>
<path style="fill:#5f5f5f; stroke:none;" d="M202 81L203 82L202 81M244 81L245 82L244 81z"/>
<path style="fill:#2e2e2e; stroke:none;" d="M263 81L264 82L263 81z"/>
<path style="fill:#5f5f5f; stroke:none;" d="M274 81L275 82L274 81z"/>
<path style="fill:#2e2e2e; stroke:none;" d="M72 82L73 83L72 82M96 82L97 83L96 82z"/>
<path style="fill:#5f5f5f; stroke:none;" d="M151 82L152 83L151 82z"/>
<path style="fill:#9c9c9c; stroke:none;" d="M216 82L217 83L216 82z"/>
<path style="fill:#5f5f5f; stroke:none;" d="M233 82L234 83L233 82M245 82L246 83L245 82z"/>
<path style="fill:#2e2e2e; stroke:none;" d="M262 82L263 83L262 82z"/>
<path style="fill:#9c9c9c; stroke:none;" d="M274 82L275 83L274 82M38 83L39 84L38 83z"/>
<path style="fill:#5f5f5f; stroke:none;" d="M61 83L62 84L61 83z"/>
<path style="fill:#9c9c9c; stroke:none;" d="M74 83L75 84L74 83M83 83L84 84L83 83M96 83L97 84L96 83z"/>
<path style="fill:#2e2e2e; stroke:none;" d="M215 83L216 84L215 83z"/>
<path style="fill:#5f5f5f; stroke:none;" d="M246 83L247 84L246 83z"/>
<path style="fill:#2e2e2e; stroke:none;" d="M261 83L262 84L261 83M273 83L274 84L273 83M75 84L76 85L75 84z"/>
<path style="fill:#9c9c9c; stroke:none;" d="M76.6667 84.3333L77.3333 84.6667L76.6667 84.3333M79.6667 84.3333L80.3333 84.6667L79.6667 84.3333z"/>
<path style="fill:#5f5f5f; stroke:none;" d="M81 84L82 85L81 84z"/>
<path style="fill:#9c9c9c; stroke:none;" d="M150 84L151 85L150 84z"/>
<path style="fill:#5f5f5f; stroke:none;" d="M234 84L235 85L234 84z"/>
<path style="fill:#9c9c9c; stroke:none;" d="M248 84L249 85L248 84M259 84L260 85L259 84M273 84L274 85L273 84z"/>
<path style="fill:#5f5f5f; stroke:none;" d="M37 85L38 86L37 85z"/>
<path style="fill:#2e2e2e; stroke:none;" d="M48 85L49 86L48 85z"/>
<path style="fill:#5f5f5f; stroke:none;" d="M62 85L63 86L62 85z"/>
<path style="fill:#9c9c9c; stroke:none;" d="M95 85L96 86L95 85M149 85L150 86L149 85M214 85L215 86L214 85z"/>
<path style="fill:#2e2e2e; stroke:none;" d="M249 85L250 86L249 85z"/>
<path style="fill:#9c9c9c; stroke:none;" d="M250.667 85.3333L251.333 85.6667L250.667 85.3333M256 85L257 86L256 85z"/>
<path style="fill:#5f5f5f; stroke:none;" d="M257 85L258 86L257 85z"/>
<path style="fill:#2e2e2e; stroke:none;" d="M272 85L273 86L272 85z"/>
<path style="fill:#9c9c9c; stroke:none;" d="M36 86L37 87L36 86z"/>
<path style="fill:#5f5f5f; stroke:none;" d="M48 86L49 87L48 86z"/>
<path style="fill:#9c9c9c; stroke:none;" d="M148 86L149 87L148 86M213 86L214 87L213 86M235 86L236 87L235 86M35 87L36 88L35 87M63 87L64 88L63 87M147 87L148 88L147 87z"/>
<path style="fill:#2e2e2e; stroke:none;" d="M211 87L212 88L211 87z"/>
<path style="fill:#5f5f5f; stroke:none;" d="M236 87L237 88L236 87z"/>
<path style="fill:#9c9c9c; stroke:none;" d="M271 87L272 88L271 87M33 88L34 89L33 88z"/>
<path style="fill:#2e2e2e; stroke:none;" d="M34 88L35 89L34 88M47 88L48 89L47 88z"/>
<path style="fill:#5f5f5f; stroke:none;" d="M64 88L65 89L64 88z"/>
<path style="fill:#9c9c9c; stroke:none;" d="M93 88L94 89L93 88z"/>
<path style="fill:#5f5f5f; stroke:none;" d="M145 88L146 89L145 88z"/>
<path style="fill:#9c9c9c; stroke:none;" d="M210 88L211 89L210 88z"/>
<path style="fill:#2e2e2e; stroke:none;" d="M237 88L238 89L237 88z"/>
<path style="fill:#5f5f5f; stroke:none;" d="M270 88L271 89L270 88z"/>
<path style="fill:#9c9c9c; stroke:none;" d="M17 89L17 90L31 90L17 89z"/>
<path style="fill:#5f5f5f; stroke:none;" d="M31 89L32 90L31 89z"/>
<path style="fill:#9c9c9c; stroke:none;" d="M47 89L48 90L47 89z"/>
<path style="fill:#5f5f5f; stroke:none;" d="M65 89L66 90L65 89z"/>
<path style="fill:#9c9c9c; stroke:none;" d="M92 89L93 90L92 89z"/>
<path style="fill:#2e2e2e; stroke:none;" d="M142 89L143 90L142 89z"/>
<path style="fill:#9c9c9c; stroke:none;" d="M143 89L144 90L143 89z"/>
<path style="fill:#2e2e2e; stroke:none;" d="M207 89L208 90L207 89z"/>
<path style="fill:#9c9c9c; stroke:none;" d="M208 89L209 90L208 89z"/>
<path style="fill:#2e2e2e; stroke:none;" d="M238 89L239 90L238 89z"/>
<path style="fill:#5f5f5f; stroke:none;" d="M269 89L270 90L269 89M46 90L47 91L46 90M66 90L67 91L66 90z"/>
<path style="fill:#9c9c9c; stroke:none;" d="M91 90L92 91L91 90z"/>
<path style="fill:#5f5f5f; stroke:none;" d="M140 90L141 91L140 90z"/>
<path style="fill:#9c9c9c; stroke:none;" d="M156 90L157 91L156 90z"/>
<path style="fill:#5f5f5f; stroke:none;" d="M157 90L158 91L157 90z"/>
<path style="fill:#9c9c9c; stroke:none;" d="M158 90L159 91L158 90M205 90L206 91L205 90M221 90L222 91L221 90z"/>
<path style="fill:#2e2e2e; stroke:none;" d="M222 90L223 91L222 90M239 90L240 91L239 90z"/>
<path style="fill:#5f5f5f; stroke:none;" d="M268 90L269 91L268 90z"/>
<path style="fill:#9c9c9c; stroke:none;" d="M67 91L68 92L67 91M90 91L91 92L90 91z"/>
<path style="fill:#5f5f5f; stroke:none;" d="M141 91L142 92L141 91z"/>
<path style="fill:#9c9c9c; stroke:none;" d="M142 91L143 92L142 91M154 91L155 92L154 91z"/>
<path style="fill:#2e2e2e; stroke:none;" d="M155 91L156 92L155 91M158 91L159 92L158 91z"/>
<path style="fill:#5f5f5f; stroke:none;" d="M206 91L207 92L206 91z"/>
<path style="fill:#9c9c9c; stroke:none;" d="M207 91L208 92L207 91M218 91L219 92L218 91z"/>
<path style="fill:#5f5f5f; stroke:none;" d="M219 91L220 92L219 91z"/>
<path style="fill:#9c9c9c; stroke:none;" d="M223 91L224 92L223 91z"/>
<path style="fill:#5f5f5f; stroke:none;" d="M240 91L241 92L240 91z"/>
<path style="fill:#9c9c9c; stroke:none;" d="M267 91L268 92L267 91M45 92L46 93L45 92z"/>
<path style="fill:#2e2e2e; stroke:none;" d="M69 92L70 93L69 92z"/>
<path style="fill:#5f5f5f; stroke:none;" d="M88 92L89 93L88 92z"/>
<path style="fill:#2e2e2e; stroke:none;" d="M121 92L121 99L122 99L121 92z"/>
<path style="fill:#9c9c9c; stroke:none;" d="M123.667 92.3333L124.333 92.6667L123.667 92.3333M126 92L127 93L126 92z"/>
<path style="fill:#2e2e2e; stroke:none;" d="M144 92L145 93L144 92z"/>
<path style="fill:#5f5f5f; stroke:none;" d="M145.667 92.3333L146.333 92.6667L145.667 92.3333z"/>
<path style="fill:#9c9c9c; stroke:none;" d="M147 92L147 93L150 93L147 92z"/>
<path style="fill:#5f5f5f; stroke:none;" d="M150.667 92.3333L151.333 92.6667L150.667 92.3333z"/>
<path style="fill:#9c9c9c; stroke:none;" d="M159 92L160 93L159 92M186 92L186 100L187 100L186 92M188.667 92.3333L189.333 92.6667L188.667 92.3333z"/>
<path style="fill:#5f5f5f; stroke:none;" d="M191 92L192 93L191 92z"/>
<path style="fill:#2e2e2e; stroke:none;" d="M209 92L210 93L209 92z"/>
<path style="fill:#5f5f5f; stroke:none;" d="M210.667 92.3333L211.333 92.6667L210.667 92.3333z"/>
<path style="fill:#9c9c9c; stroke:none;" d="M212 92L212 93L215 93L212 92z"/>
<path style="fill:#5f5f5f; stroke:none;" d="M215 92L216 93L215 92z"/>
<path style="fill:#2e2e2e; stroke:none;" d="M216 92L217 93L216 92z"/>
<path style="fill:#9c9c9c; stroke:none;" d="M241 92L242 93L241 92M266 92L267 93L266 92M44 93L45 94L44 93M70 93L71 94L70 93z"/>
<path style="fill:#2e2e2e; stroke:none;" d="M71 93L72 94L71 93z"/>
<path style="fill:#5f5f5f; stroke:none;" d="M86 93L87 94L86 93z"/>
<path style="fill:#9c9c9c; stroke:none;" d="M87 93L88 94L87 93M127 93L128 94L127 93z"/>
<path style="fill:#5f5f5f; stroke:none;" d="M192 93L193 94L192 93M224 93L225 94L224 93M243 93L244 94L243 93z"/>
<path style="fill:#9c9c9c; stroke:none;" d="M264 93L265 94L264 93M43 94L44 95L43 94M72 94L73 95L72 94z"/>
<path style="fill:#5f5f5f; stroke:none;" d="M73 94L74 95L73 94z"/>
<path style="fill:#2e2e2e; stroke:none;" d="M74 94L75 95L74 94M83 94L84 95L83 94z"/>
<path style="fill:#9c9c9c; stroke:none;" d="M84 94L85 95L84 94M128 94L129 95L128 94M160 94L161 95L160 94M193 94L194 95L193 94M225 94L226 95L225 94z"/>
<path style="fill:#5f5f5f; stroke:none;" d="M245 94L246 95L245 94z"/>
<path style="fill:#2e2e2e; stroke:none;" d="M261 94L262 95L261 94z"/>
<path style="fill:#9c9c9c; stroke:none;" d="M262 94L263 95L262 94M42 95L43 96L42 95M77 95L77 96L80 96L77 95z"/>
<path style="fill:#2e2e2e; stroke:none;" d="M130 95L131 96L130 95z"/>
<path style="fill:#9c9c9c; stroke:none;" d="M194 95L195 96L194 95z"/>
<path style="fill:#2e2e2e; stroke:none;" d="M225 95L226 96L225 95z"/>
<path style="fill:#9c9c9c; stroke:none;" d="M247.667 95.3333L248.333 95.6667L247.667 95.3333z"/>
<path style="fill:#2e2e2e; stroke:none;" d="M249 95L250 96L249 95M257 95L258 96L257 95z"/>
<path style="fill:#5f5f5f; stroke:none;" d="M258 95L259 96L258 95z"/>
<path style="fill:#9c9c9c; stroke:none;" d="M259.667 95.3333L260.333 95.6667L259.667 95.3333z"/>
<path style="fill:#2e2e2e; stroke:none;" d="M40 96L41 97L40 96z"/>
<path style="fill:#9c9c9c; stroke:none;" d="M131 96L132 97L131 96z"/>
<path style="fill:#5f5f5f; stroke:none;" d="M161 96L162 97L161 96M196 96L197 97L196 96z"/>
<path style="fill:#9c9c9c; stroke:none;" d="M226 96L227 97L226 96M39 97L40 98L39 97z"/>
<path style="fill:#5f5f5f; stroke:none;" d="M133 97L134 98L133 97z"/>
<path style="fill:#9c9c9c; stroke:none;" d="M162 97L163 98L162 97M197 97L198 98L197 97z"/>
<path style="fill:#2e2e2e; stroke:none;" d="M36 98L37 99L36 98z"/>
<path style="fill:#9c9c9c; stroke:none;" d="M37 98L38 99L37 98M134 98L135 99L134 98z"/>
<path style="fill:#2e2e2e; stroke:none;" d="M135 98L136 99L135 98z"/>
<path style="fill:#9c9c9c; stroke:none;" d="M199 98L200 99L199 98z"/>
<path style="fill:#5f5f5f; stroke:none;" d="M227 98L226 100L227 98z"/>
<path style="fill:#2e2e2e; stroke:none;" d="M8 99L8 100L33 100L8 99z"/>
<path style="fill:#5f5f5f; stroke:none;" d="M33 99L34 100L33 99z"/>
<path style="fill:#9c9c9c; stroke:none;" d="M34 99L35 100L34 99z"/>
<path style="fill:#2e2e2e; stroke:none;" d="M113 99L113 100L120 100L113 99z"/>
<path style="fill:#5f5f5f; stroke:none;" d="M121 99L122 100L121 99z"/>
<path style="fill:#9c9c9c; stroke:none;" d="M136 99L137 100L136 99z"/>
<path style="fill:#5f5f5f; stroke:none;" d="M137 99L138 100L137 99z"/>
<path style="fill:#2e2e2e; stroke:none;" d="M161 99L162 100L161 99z"/>
<path style="fill:#9c9c9c; stroke:none;" d="M162 99L163 100L162 99z"/>
<path style="fill:#2e2e2e; stroke:none;" d="M176 99L176 100L185 100L176 99z"/>
<path style="fill:#9c9c9c; stroke:none;" d="M201 99L202 100L201 99z"/>
<path style="fill:#2e2e2e; stroke:none;" d="M202 99L203 100L202 99z"/>
<path style="fill:#9c9c9c; stroke:none;" d="M227 99L228 100L227 99M139 100L140 101L139 100z"/>
<path style="fill:#5f5f5f; stroke:none;" d="M140 100L141 101L140 100z"/>
<path style="fill:#2e2e2e; stroke:none;" d="M141 100L142 101L141 100z"/>
<path style="fill:#5f5f5f; stroke:none;" d="M158 100L159 101L158 100z"/>
<path style="fill:#9c9c9c; stroke:none;" d="M159 100L160 101L159 100M204 100L205 101L204 100z"/>
<path style="fill:#5f5f5f; stroke:none;" d="M205 100L206 101L205 100M223 100L224 101L223 100z"/>
<path style="fill:#9c9c9c; stroke:none;" d="M224 100L225 101L224 100M143.667 101.333L144.333 101.667L143.667 101.333z"/>
<path style="fill:#5f5f5f; stroke:none;" d="M145 101L146 102L145 101z"/>
<path style="fill:#2e2e2e; stroke:none;" d="M146.667 101.333L147.333 101.667L146.667 101.333M152.667 101.333L153.333 101.667L152.667 101.333z"/>
<path style="fill:#5f5f5f; stroke:none;" d="M154 101L155 102L154 101z"/>
<path style="fill:#9c9c9c; stroke:none;" d="M155.667 101.333L156.333 101.667L155.667 101.333M208 101L209 102L208 101z"/>
<path style="fill:#5f5f5f; stroke:none;" d="M209 101L210 102L209 101z"/>
<path style="fill:#2e2e2e; stroke:none;" d="M210 101L210 102L213 102L210 101M217 101L218 102L217 101z"/>
<path style="fill:#5f5f5f; stroke:none;" d="M218 101L219 102L218 101z"/>
<path style="fill:#9c9c9c; stroke:none;" d="M219.667 101.333L220.333 101.667L219.667 101.333M137 108L138 109L137 108M109 109C109 114.231 107.14 122.849 112 126L112 125L109 109z"/>
<path style="fill:#020202; stroke:none;" d="M110 109L110 125L111 125L112 117L113 117L116 125C114.777 118.739 118.101 110.292 110 109z"/>
<path style="fill:#2e2e2e; stroke:none;" d="M114 109L115 110L114 109z"/>
<path style="fill:#9c9c9c; stroke:none;" d="M122 109C122 115.472 119.497 125.337 128 126L128 125L123 125L122 109z"/>
<path style="fill:#020202; stroke:none;" d="M123 109L123 125L128 125L128 124L124 124L127 118L124 116L124 111L128 111L128 109L123 109z"/>
<path style="fill:#5f5f5f; stroke:none;" d="M135 109L137 111L135 109z"/>
<path style="fill:#020202; stroke:none;" d="M136 109L136 110L139 114L140 114L136 109z"/>
<path style="fill:#9c9c9c; stroke:none;" d="M139 109L140 110L139 109z"/>
<path style="fill:#5f5f5f; stroke:none;" d="M146 109L147 110L146 109z"/>
<path style="fill:#020202; stroke:none;" d="M147 109L151 125C149.226 118.402 150.255 114.625 153 109L147 109z"/>
<path style="fill:#9c9c9c; stroke:none;" d="M153.333 109.667L153.667 110.333L153.333 109.667z"/>
<path style="fill:#5f5f5f; stroke:none;" d="M160.333 109.667L160.667 110.333L160.333 109.667z"/>
<path style="fill:#020202; stroke:none;" d="M161 109L159 125L160 125L160 122L164 125L165 125L164 115L163 115L163 121L160 120L161 112L162 112L162 114L163 114L163 109L161 109z"/>
<path style="fill:#5f5f5f; stroke:none;" d="M171 109L172 110L171 109z"/>
<path style="fill:#020202; stroke:none;" d="M172 109L172 116.002C172.036 133.579 183.539 115.588 176 109C177.266 114.316 178.337 120.882 173 124L172 109z"/>
<path style="fill:#9c9c9c; stroke:none;" d="M173 109C173 113.913 171.436 121.041 176 124L176 123L173 109M184 109C184 114.231 182.14 122.849 187 126L187 125L184 109z"/>
<path style="fill:#020202; stroke:none;" d="M185 109L185 125L187 125L187 117L190 125C191.407 118.969 192.57 109.871 185 109z"/>
<path style="fill:#2e2e2e; stroke:none;" d="M189 109L190 110L189 109z"/>
<path style="fill:#9c9c9c; stroke:none;" d="M190 109L191 110L190 109M199.333 109.667L199.667 110.333L199.333 109.667z"/>
<path style="fill:#020202; stroke:none;" d="M200 109L198 125L199 125L199 122L203 125L204 125L202 109L200 109M211 109L211 125L212 125L212 114L213 114L213 116L214 116L211 109z"/>
<path style="fill:#9c9c9c; stroke:none;" d="M215 109L215 119L216 119L215 109z"/>
<path style="fill:#020202; stroke:none;" d="M216 109L216 120L215 120L215 117L214 117L215 125L217 125L216 109z"/>
<path style="fill:#5f5f5f; stroke:none;" d="M217 109L217 125L218 125L217 109z"/>
<path style="fill:#020202; stroke:none;" d="M224 109L227 111L227 125L228 125L230 109L224 109z"/>
<path style="fill:#2e2e2e; stroke:none;" d="M230.333 109.667L230.667 110.333L230.333 109.667M115 110L116 111L115 110z"/>
<path style="fill:#9c9c9c; stroke:none;" d="M134 110L135 111L134 110z"/>
<path style="fill:#020202; stroke:none;" d="M135 110L136 124L134 120C134.588 122.693 138.891 127.242 139.469 121.851C139.851 118.291 136.602 113.117 135 110z"/>
<path style="fill:#9c9c9c; stroke:none;" d="M137 110L136 114L137 114L137 110z"/>
<path style="fill:#2e2e2e; stroke:none;" d="M146 110L147 111L146 110z"/>
<path style="fill:#9c9c9c; stroke:none;" d="M171 110L171 124L172 124L171 110z"/>
<path style="fill:#2e2e2e; stroke:none;" d="M176 110L176 122L177 122L176 110z"/>
<path style="fill:#9c9c9c; stroke:none;" d="M202.333 110.667L202.667 111.333L202.333 110.667M213 110L214 111L213 110z"/>
<path style="fill:#5f5f5f; stroke:none;" d="M111 111L111 115L112 115L111 111z"/>
<path style="fill:#ffffff; stroke:none;" d="M112 111L112 116L113 116L112 111z"/>
<path style="fill:#9c9c9c; stroke:none;" d="M113 111L114 112L113 111z"/>
<path style="fill:#5f5f5f; stroke:none;" d="M124 111L124 116L125 116L124 111M134 111L135 112L134 111z"/>
<path style="fill:#ffffff; stroke:none;" d="M137 111L137 115L138 115L137 111z"/>
<path style="fill:#2e2e2e; stroke:none;" d="M138 111L138 114L139 114L138 111z"/>
<path style="fill:#9c9c9c; stroke:none;" d="M148 111L148 125L149 125L148 111z"/>
<path style="fill:#2e2e2e; stroke:none;" d="M150 111L150 124L151 124L150 111M160 111L161 112L160 111z"/>
<path style="fill:#9c9c9c; stroke:none;" d="M163.333 111.667L163.667 112.333L163.333 111.667z"/>
<path style="fill:#2e2e2e; stroke:none;" d="M186.333 111.667L186.667 112.333L186.333 111.667z"/>
<path style="fill:#ffffff; stroke:none;" d="M187 111L187 116L188 116L189 111L187 111z"/>
<path style="fill:#5f5f5f; stroke:none;" d="M199 111L200 112L199 111M213 111L214 112L213 111z"/>
<path style="fill:#2e2e2e; stroke:none;" d="M226 111L226 125L227 125L226 111z"/>
<path style="fill:#9c9c9c; stroke:none;" d="M228 111L228 125L229 125L228 111z"/>
<path style="fill:#2e2e2e; stroke:none;" d="M134 112L135 113L134 112M161 112L162 113L161 112M200 112L202 114L200 112z"/>
<path style="fill:#5f5f5f; stroke:none;" d="M202 112L203 113L202 112M134 113L135 114L134 113z"/>
<path style="fill:#9c9c9c; stroke:none;" d="M161 113L161 116L162 116L161 113z"/>
<path style="fill:#5f5f5f; stroke:none;" d="M163 113L164 114L163 113M200 113L202 115L200 113z"/>
<path style="fill:#9c9c9c; stroke:none;" d="M134 114L135 115L134 114z"/>
<path style="fill:#2e2e2e; stroke:none;" d="M136 114L137 115L136 114z"/>
<path style="fill:#9c9c9c; stroke:none;" d="M138.667 114.333L139.333 114.667L138.667 114.333M159.333 114.667L159.667 115.333L159.333 114.667z"/>
<path style="fill:#2e2e2e; stroke:none;" d="M162.667 114.333L163.333 114.667L162.667 114.333M186 114L187 115L186 114z"/>
<path style="fill:#9c9c9c; stroke:none;" d="M200 114L202 118L200 114z"/>
<path style="fill:#5f5f5f; stroke:none;" d="M212 114L213 115L212 114z"/>
<path style="fill:#2e2e2e; stroke:none;" d="M111 115L112 116L111 115z"/>
<path style="fill:#9c9c9c; stroke:none;" d="M113 115L114 116L113 115z"/>
<path style="fill:#2e2e2e; stroke:none;" d="M135 115L136 116L135 115z"/>
<path style="fill:#9c9c9c; stroke:none;" d="M137 115L138 116L137 115z"/>
<path style="fill:#5f5f5f; stroke:none;" d="M162.333 115.667L162.667 116.333L162.333 115.667z"/>
<path style="fill:#9c9c9c; stroke:none;" d="M188 115L189 116L188 115M198 115L198 118L199 118L198 115M212 115L214 118L212 115z"/>
<path style="fill:#5f5f5f; stroke:none;" d="M115 116L116 117L115 116M127.333 116.667L127.667 117.333L127.333 116.667z"/>
<path style="fill:#9c9c9c; stroke:none;" d="M135 116L136 117L135 116z"/>
<path style="fill:#5f5f5f; stroke:none;" d="M159.333 116.667L159.667 117.333L159.333 116.667z"/>
<path style="fill:#ffffff; stroke:none;" d="M161 116L161 120L162 120L161 116z"/>
<path style="fill:#2e2e2e; stroke:none;" d="M190 116L191 117L190 116z"/>
<path style="fill:#9c9c9c; stroke:none;" d="M203.333 116.667L203.667 117.333L203.333 116.667z"/>
<path style="fill:#5f5f5f; stroke:none;" d="M213 116L214 117L213 116z"/>
<path style="fill:#2e2e2e; stroke:none;" d="M214 116L215 117L214 116M112 117L113 118L112 117z"/>
<path style="fill:#5f5f5f; stroke:none;" d="M114.333 117.667L114.667 118.333L114.333 117.667z"/>
<path style="fill:#2e2e2e; stroke:none;" d="M125 117L126 118L125 117z"/>
<path style="fill:#5f5f5f; stroke:none;" d="M136 117L137 118L136 117z"/>
<path style="fill:#2e2e2e; stroke:none;" d="M138 117L139 118L138 117z"/>
<path style="fill:#9c9c9c; stroke:none;" d="M162 117L162 120L163 120L162 117M164.333 117.667L164.667 118.333L164.333 117.667z"/>
<path style="fill:#2e2e2e; stroke:none;" d="M187 117L188 118L187 117z"/>
<path style="fill:#5f5f5f; stroke:none;" d="M189 117L190 118L189 117M212 117L212 124L213 124L212 117M111 118L111 124L112 124L111 118z"/>
<path style="fill:#9c9c9c; stroke:none;" d="M112 118L113 119L112 118z"/>
<path style="fill:#5f5f5f; stroke:none;" d="M124 118C124.263 121.41 124.679 122.901 128 124L128 123L125 123L124 118z"/>
<path style="fill:#9c9c9c; stroke:none;" d="M139 118L140 119L139 118z"/>
<path style="fill:#2e2e2e; stroke:none;" d="M159 118L160 119L159 118M186 118L186 121L187 121L186 118M189 118L190 119L189 118z"/>
<path style="fill:#5f5f5f; stroke:none;" d="M198 118L199 119L198 118z"/>
<path style="fill:#ffffff; stroke:none;" d="M200 118L200 120L202 120L202 118L200 118z"/>
<path style="fill:#5f5f5f; stroke:none;" d="M203 118L204 119L203 118z"/>
<path style="fill:#9c9c9c; stroke:none;" d="M134 119L135 120L134 119z"/>
<path style="fill:#5f5f5f; stroke:none;" d="M135 119L136 120L135 119z"/>
<path style="fill:#9c9c9c; stroke:none;" d="M137 119L138 120L137 119z"/>
<path style="fill:#2e2e2e; stroke:none;" d="M139 119L140 120L139 119M160 119L161 120L160 119z"/>
<path style="fill:#5f5f5f; stroke:none;" d="M164 119L165 120L164 119z"/>
<path style="fill:#2e2e2e; stroke:none;" d="M203 119L204 120L203 119M215 119L216 120L215 119z"/>
<path style="fill:#5f5f5f; stroke:none;" d="M161.667 120.333L162.333 120.667L161.667 120.333z"/>
<path style="fill:#2e2e2e; stroke:none;" d="M164.333 120.667L164.667 121.333L164.333 120.667z"/>
<path style="fill:#5f5f5f; stroke:none;" d="M188 120L189 121L188 120z"/>
<path style="fill:#9c9c9c; stroke:none;" d="M190.333 120.667L190.667 121.333L190.333 120.667z"/>
<path style="fill:#5f5f5f; stroke:none;" d="M200.667 120.333L201.333 120.667L200.667 120.333z"/>
<path style="fill:#2e2e2e; stroke:none;" d="M214 120L215 121L214 120z"/>
<path style="fill:#5f5f5f; stroke:none;" d="M113 121L114 122L113 121z"/>
<path style="fill:#9c9c9c; stroke:none;" d="M115 121L116 122L115 121z"/>
<path style="fill:#2e2e2e; stroke:none;" d="M138.333 121.667L138.667 122.333L138.333 121.667z"/>
<path style="fill:#9c9c9c; stroke:none;" d="M140.333 121.667L140.667 122.333L140.333 121.667M158.333 121.667L158.667 122.333L158.333 121.667M188.333 121.667L188.667 122.333L188.333 121.667M214.333 121.667L214.667 122.333L214.333 121.667M113 122L114 123L113 122z"/>
<path style="fill:#5f5f5f; stroke:none;" d="M115 122L116 123L115 122M160 122L161 123L160 122z"/>
<path style="fill:#9c9c9c; stroke:none;" d="M161.667 122.333L162.333 122.667L161.667 122.333z"/>
<path style="fill:#2e2e2e; stroke:none;" d="M190 122L191 123L190 122z"/>
<path style="fill:#9c9c9c; stroke:none;" d="M197.333 122.667L197.667 123.333L197.333 122.667z"/>
<path style="fill:#2e2e2e; stroke:none;" d="M199 122L200 123L199 122z"/>
<path style="fill:#9c9c9c; stroke:none;" d="M200 122L200 123L202 125L203 125L200 122z"/>
<path style="fill:#5f5f5f; stroke:none;" d="M202 122L203 123L202 122z"/>
<path style="fill:#2e2e2e; stroke:none;" d="M124 123L125 124L124 123M134 123L135 124L134 123z"/>
<path style="fill:#9c9c9c; stroke:none;" d="M136 123L137 124L136 123z"/>
<path style="fill:#5f5f5f; stroke:none;" d="M158 123L159 124L158 123z"/>
<path style="fill:#9c9c9c; stroke:none;" d="M160.333 123.667L160.667 124.333L160.333 123.667z"/>
<path style="fill:#5f5f5f; stroke:none;" d="M163.333 123.667L163.667 124.333L163.333 123.667z"/>
<path style="fill:#2e2e2e; stroke:none;" d="M173 123L174 124L173 123z"/>
<path style="fill:#5f5f5f; stroke:none;" d="M199 123L200 124L199 123z"/>
<path style="fill:#9c9c9c; stroke:none;" d="M204.333 123.667L204.667 124.333L204.333 123.667z"/>
<path style="fill:#2e2e2e; stroke:none;" d="M111 124L112 125L111 124z"/>
<path style="fill:#9c9c9c; stroke:none;" d="M134 124L135 125L134 124M139 124L140 125L139 124z"/>
<path style="fill:#2e2e2e; stroke:none;" d="M158 124L159 125L158 124z"/>
<path style="fill:#9c9c9c; stroke:none;" d="M165 124L166 125L165 124z"/>
<path style="fill:#5f5f5f; stroke:none;" d="M172 124L173 125L172 124z"/>
<path style="fill:#9c9c9c; stroke:none;" d="M177 124L178 125L177 124z"/>
<path style="fill:#2e2e2e; stroke:none;" d="M189 124L190 125L189 124z"/>
<path style="fill:#9c9c9c; stroke:none;" d="M191 124L192 125L191 124z"/>
<path style="fill:#5f5f5f; stroke:none;" d="M197 124L198 125L197 124z"/>
<path style="fill:#9c9c9c; stroke:none;" d="M199 124L200 125L199 124z"/>
<path style="fill:#2e2e2e; stroke:none;" d="M212 124L213 125L212 124z"/>
<path style="fill:#9c9c9c; stroke:none;" d="M114.667 125.333L115.333 125.667L114.667 125.333M136 125L136 126L139 126L136 125M149.667 125.333L150.333 125.667L149.667 125.333M158.667 125.333L159.333 125.667L158.667 125.333M164 125L165 126L164 125M173 125L173 126L176 126L173 125M190 125L191 126L190 125M198 125L199 126L198 125M203 125L204 126L203 125M211.667 125.333L212.333 125.667L211.667 125.333M215.667 125.333L216.333 125.667L215.667 125.333M226.667 125.333L227.333 125.667L226.667 125.333z"/>
</svg>
